<?xml version="1.0" ?><svg enable-background="new 0 0 512 512" id="Layer_1" version="1.0" viewBox="0 0 512 512" xml:space="preserve" xmlns="http://www.w3.org/2000/svg" xmlns:xlink="http://www.w3.org/1999/xlink"><g><g><g><path d="M72.9,146.9c9.7,0,9.7-15,0-15C63.3,131.9,63.2,146.9,72.9,146.9L72.9,146.9z"/><path d="M310.8,146.9c18.9,0,37.8,0,56.8,0c-2.5-2.5-5-5-7.5-7.5c3.5,34.1,7.1,68.2,10.6,102.3c0.5,4.8,1,9.7,1.5,14.5     c0.4,4,3.1,7.5,7.5,7.5c3.7,0,7.9-3.4,7.5-7.5c-3.5-34.1-7.1-68.2-10.6-102.3c-0.5-4.8-1-9.7-1.5-14.5c-0.4-4-3.1-7.5-7.5-7.5     c-18.9,0-37.8,0-56.8,0C301.1,131.9,301.1,146.9,310.8,146.9L310.8,146.9z"/><path d="M129.7,131.9c-18.9,0-37.9,0-56.8,0c-4.4,0-7.1,3.5-7.5,7.5c-1.2,12-2.5,24-3.7,36c-3,28.6-6,57.3-8.9,85.9     c-3.6,34.8-7.2,69.6-10.9,104.5c-3.1,30.1-6.3,60.2-9.4,90.4c-1,9.9-2.1,19.8-3.1,29.7c-0.5,4.7-1.4,9.5-1.5,14.2     c0,0.2,0,0.4-0.1,0.6c-0.4,4,3.8,7.5,7.5,7.5c20.9,0,41.8,0,62.7,0c33.1,0,66.3,0,99.4,0c12.4,0,24.7,0,37.1,0     c31.7,0,63.5,0,95.2,0c24.7,0,49.4,0.6,74.1,0c0.4,0,0.8,0,1.3,0c9.7,0,9.7-15,0-15c-20.8,0-41.5,0-62.3,0c-33.2,0-66.5,0-99.7,0     c-12.4,0-24.8,0-37.2,0c-31.6,0-63.1,0-94.7,0c-16,0-31.9,0-47.9,0c-8.8,0-17.8-0.6-26.6,0c-0.4,0-0.9,0-1.3,0     c2.5,2.5,5,5,7.5,7.5c1.2-12,2.5-24,3.7-36c3-28.6,6-57.3,8.9-85.9c3.6-34.8,7.2-69.6,10.9-104.5c3.1-30.1,6.3-60.2,9.4-90.4     c1-9.9,2.1-19.8,3.1-29.7c0.5-4.6,1.5-9.6,1.5-14.2c0-0.2,0-0.4,0.1-0.6c-2.5,2.5-5,5-7.5,7.5c18.9,0,37.9,0,56.8,0     C139.3,146.9,139.4,131.9,129.7,131.9L129.7,131.9z"/><path d="M288.7,131.9c-40.1,0-80.1,0-120.2,0c-5.6,0-11.2,0-16.7,0c-9.7,0-9.7,15,0,15c40.1,0,80.1,0,120.2,0     c5.6,0,11.2,0,16.7,0C298.3,146.9,298.3,131.9,288.7,131.9L288.7,131.9z"/></g></g><g><g><path d="M245.7,263.7c23,0,46,0,69,0c36.7,0,73.5,0,110.2,0c8.5,0,17,0,25.5,0c-2.5-2.5-5-5-7.5-7.5c2.9,27.5,5.9,55.1,8.8,82.6     c4.7,43.9,9.4,87.8,14.1,131.7c1.1,10.1,2.1,20.1,3.2,30.2c2.5-2.5,5-5,7.5-7.5c-29.1,0-58.1,0-87.2,0c-46,0-91.9,0-137.9,0     c-10.6,0-21.3,0-31.9,0c2.5,2.5,5,5,7.5,7.5c2.9-27.5,5.9-55.1,8.8-82.6c4.7-43.9,9.4-87.8,14.1-131.7     c1.1-10.1,2.1-20.1,3.2-30.2c0.4-4-3.8-7.5-7.5-7.5c-4.4,0-7.1,3.5-7.5,7.5c-2.9,27.5-5.9,55.1-8.8,82.6     c-4.7,43.9-9.4,87.8-14.1,131.7c-1.1,10.1-2.1,20.1-3.2,30.2c-0.4,4,3.8,7.5,7.5,7.5c29.1,0,58.1,0,87.2,0c46,0,91.9,0,137.9,0     c10.6,0,21.3,0,31.9,0c3.7,0,7.9-3.5,7.5-7.5c-2.9-27.5-5.9-55.1-8.8-82.6c-4.7-43.9-9.4-87.8-14.1-131.7     c-1.1-10.1-2.1-20.1-3.2-30.2c-0.4-4-3.1-7.5-7.5-7.5c-23,0-46,0-69,0c-36.7,0-73.5,0-110.2,0c-8.5,0-17,0-25.5,0     C236.1,248.7,236.1,263.7,245.7,263.7z"/><path d="M245.7,263.7c9.7,0,9.7-15,0-15C236.1,248.7,236.1,263.7,245.7,263.7L245.7,263.7z"/></g></g><g><g><path d="M299.7,178.3c-4-0.2-3.5-3.9-3.5-6.8c0-4.4,0-8.9,0-13.3c0-13.1,0-26.2,0-39.3c0-8.6,0.5-17.4-0.6-25.9     c-2.3-18.8-11.5-36.4-26-48.7C239.8,19.1,195,20.3,167,47.7c-13.5,13.2-21.5,31.2-22.6,50c-0.5,8-0.1,16.2-0.1,24.2     c0,12.9,0,25.8,0,38.7c0,4.1,0,8.2,0,12.2c0,3-1.8,7.4-5.6,4.8c-2.2-1.5-1.5-5.4-1.5-7.6c0-4.8,0-9.7,0-14.5     c0-12.9,0-25.8,0-38.8c0-8.9-0.5-18,0.8-26.8c2.6-17.7,10.9-34.2,23.6-46.8c26.1-26.1,67.5-31.8,99.6-13.5     c15.4,8.8,27.6,22.3,34.9,38.4c5.4,11.9,7.2,24.6,7.2,37.5c0,22.1,0,44.2,0,66.3C303.2,174.7,303.5,178,299.7,178.3     c-9.6,0.6-9.7,15.6,0,15c10.5-0.7,18.1-8.1,18.5-18.7c0.1-3.1,0-6.3,0-9.4c0-13.2,0-26.3,0-39.5c0-8.8,0.2-17.7,0-26.6     c-0.6-19.7-7.2-39.2-18.9-55C274.9,11.2,231.9-3.9,192.5,7.9c-38.9,11.6-66.9,46.7-70,87c-0.7,9-0.3,18.1-0.3,27.1     c0,13.5,0,27.1,0,40.6c0,11.4-1.1,25.1,12.6,29.7c11.4,3.8,23.4-4.2,24.4-16.1c0.2-2.6,0.1-5.2,0.1-7.7c0-22.1-0.2-44.2,0-66.3     c0.3-37.5,35.2-67.6,72.6-60c18.1,3.7,33.6,15.2,42.3,31.4c6,11.2,7.1,23,7.1,35.4c0,21.9-0.9,44,0,65.8     c0.4,10.6,8.1,18,18.5,18.6C309.3,193.9,309.3,178.9,299.7,178.3z"/><path d="M299.7,193.3c9.7,0,9.7-15,0-15C290.1,178.3,290,193.3,299.7,193.3L299.7,193.3z"/></g></g><g><g><g><path d="M348.1,399.3c-22.7-0.3-43.1-15.4-49.2-37.5c-1.8-6.5-1.8-12.9-1.8-19.5c0-8,0-16.1,0-24.1c0-5.6-0.6-11.5,0-17      c0.3-2.7,2.8-5.2,5.6-3.3c1.7,1.2,1.5,3.2,1.5,5c0,14.3,0,28.6,0,42.9c0,21.1,12.9,40.9,34.4,45.4c25.7,5.4,50.4-12.7,53.2-38.7      c1.4-13.4,0.2-27.5,0.2-41c0-2.9-1.5-11.5,1.5-13.5c6.2-4.2,5.6,6.5,5.6,9.3c0,13.6,0.1,27.3,0,40.9      c-0.2,21.5-13.7,41.5-34.3,48.5C359.4,398.3,353.9,399.2,348.1,399.3c-9.6,0.1-9.7,15.1,0,15c27.2-0.3,51.5-16.9,61.5-42.2      c6.4-16.1,4.5-34.5,4.5-51.5c0-6.5,0.2-13,0-19.5c-0.5-13.7-14.8-23.6-27.5-16.6c-8.7,4.8-9.6,13.5-9.6,22.2c0,8.7,0,17.3,0,26      c0,5.6,0.2,11.3,0,16.9c-0.5,11.9-8.8,22.7-20.2,26.2c-11.5,3.5-24.2-0.3-31.6-9.8c-5.1-6.5-6.1-13.9-6.1-21.9      c0-14.4,0.6-28.9,0-43.3c-0.7-15.2-18.5-24.7-30.7-14c-6.6,5.8-6.4,13.4-6.4,21.4c0,14.9-1,30.1,0.2,44.9      c2.2,26.8,20.5,50.2,46.4,58.2c6.3,2,12.9,2.9,19.5,2.9C357.8,414.4,357.8,399.4,348.1,399.3z"/><path d="M348.1,414.3c9.7,0,9.7-15,0-15C338.5,399.3,338.5,414.3,348.1,414.3L348.1,414.3z"/></g></g></g></g></svg>