<?xml version="1.0" encoding="UTF-8"?>
<svg width="24px" height="24px" viewBox="0 0 24 24" version="1.1" xmlns="http://www.w3.org/2000/svg" xmlns:xlink="http://www.w3.org/1999/xlink">
    <!-- Generator: Sketch 63.1 (92452) - https://sketch.com -->
    <title>Icon/Filter_Blue</title>
    <desc>Created with Sketch.</desc>
    <g id="Icon/Filter_Blue" stroke="none" stroke-width="1" fill="none" fill-rule="evenodd">
        <path d="M12.504326,2 C7.25416306,2 3,3.51902455 3,5.39285714 C3,5.75233036 3.15815379,6.09865625 3.44842049,6.4238192 L3.44583337,6.42415848 C4.79906828,8.07376563 9.78636258,13.9174107 9.78636258,15.5714286 L9.78636258,19.2611607 C9.78636258,20.223375 11.0116833,21 12.500721,21 C13.9897587,21 15.2150794,20.223375 15.2150794,19.2611607 L15.2150794,19.2611607 L15.2150794,15.7373393 C15.2150794,15.6847076 15.2154187,15.6296161 15.2154187,15.5714286 C15.2154187,13.9174107 20.1348541,8.167875 21.6192688,6.32852232 L21.6192688,6.3284375 C21.8737399,6.03126562 22,5.71738393 22,5.39285714 C22,3.51902455 17.754489,2 12.504326,2 L12.504326,2 Z M12.5082703,7.42857143 C8.60392019,7.42857143 5.03903453,6.49553571 5.03903453,5.39285714 C5.03903453,4.29017857 8.56146593,3.35714286 12.5082703,3.35714286 C16.4551171,3.35714286 19.9774637,4.3076942 19.9774637,5.39285714 C19.9774637,6.47802009 16.4126204,7.42857143 12.5082703,7.42857143 L12.5082703,7.42857143 Z" id="Shape" fill="#006BAB"></path>
    </g>
</svg>