<svg xmlns="http://www.w3.org/2000/svg" xmlns:xlink="http://www.w3.org/1999/xlink" width="24" height="24" version="1.1" viewBox="0 0 24 24"><title>Icon/Mall_Dark_Blue</title><desc>Created with Sketch.</desc><g id="Icon/Mall_Dark_Blue" fill="none" fill-rule="evenodd" stroke="none" stroke-width="1"><g id="local_mall-24px"><polygon id="Path" points="0 0 24 0 24 24 0 24"/><path id="Shape" fill="#006BAB" fill-rule="nonzero" d="M19,6 L17,6 C17,3.24 14.76,1 12,1 C9.24,1 7,3.24 7,6 L5,6 C3.9,6 3.01,6.9 3.01,8 L3,20 C3,21.1 3.9,22 5,22 L19,22 C20.1,22 21,21.1 21,20 L21,8 C21,6.9 20.1,6 19,6 Z M12,3 C13.66,3 15,4.34 15,6 L9,6 C9,4.34 10.34,3 12,3 Z M12,13 C9.24,13 7,10.76 7,8 L9,8 C9,9.66 10.34,11 12,11 C13.66,11 15,9.66 15,8 L17,8 C17,10.76 14.76,13 12,13 Z"/></g></g></svg>