<svg xmlns="http://www.w3.org/2000/svg" xmlns:xlink="http://www.w3.org/1999/xlink" width="24" height="24" version="1.1" viewBox="0 0 24 24"><title>Icon/Settings_White</title><desc>Created with Sketch.</desc><g id="Icon/Settings_White" fill="none" fill-rule="evenodd" stroke="none" stroke-width="1"><path id="Shape" fill="#FFF" fill-rule="nonzero" d="M19.7147115,12.4500046 C19.7631242,12.1652316 19.7631242,11.8325929 19.7631242,11.5 C19.7631242,11.1674071 19.7147115,10.8825884 19.7147115,10.5499954 L21.7547621,8.98257924 C21.9493267,8.8401699 21.9976938,8.60271444 21.8520444,8.36516762 L19.908728,5.08746917 C19.8114914,4.89728556 19.5201926,4.80269617 19.325628,4.89728556 L16.8964938,5.8473358 C16.4106305,5.46742532 15.8280329,5.13478671 15.2449786,4.89728556 L14.9048103,2.37991048 C14.8563975,2.19018361 14.6618786,2 14.4189469,2 L10.532314,2 C10.289428,2 10.0949091,2.19018361 10.0464963,2.37991048 L9.65791523,4.89728556 C9.07481524,5.13478671 8.54058477,5.46737965 8.00589757,5.8473358 L5.57676342,4.89728556 C5.33383174,4.80269617 5.09090005,4.89728556 4.99366344,5.08746917 L3.05034698,8.36521329 C2.95356709,8.55489449 3.00188853,8.8401699 3.1475836,8.98262492 L5.23668647,10.5499954 C5.23668647,10.8825884 5.18827368,11.1674071 5.18827368,11.5 C5.18827368,11.8325929 5.23668647,12.1174116 5.23668647,12.4500046 L3.19659012,14.0174208 C3.00202555,14.1598301 2.95370411,14.3972856 3.09930784,14.6348324 L5.04262429,17.9125308 C5.13990658,18.1027144 5.43120537,18.1973038 5.62572427,18.1027144 L8.05490409,17.1526642 C8.54072179,17.5325747 9.12336504,17.8652133 9.70641935,18.1027144 L10.0950004,20.6200895 C10.1438243,20.8575907 10.3378864,21 10.5808181,21 L14.467451,21 C14.7103827,21 14.9049016,20.8098164 14.9533144,20.6200895 L15.3423522,18.1027144 C15.9249955,17.8652133 16.4596827,17.5326203 16.9938675,17.1526642 L19.4230473,18.1027144 C19.6659333,18.1973038 19.908865,18.1027144 20.0061473,17.9125308 L21.9494637,14.6347867 C22.0467003,14.4451055 21.9978765,14.1598301 21.8521814,14.0173751 L19.7147115,12.4500046 Z M12.4999765,15 C10.5497949,15 9,13.4502404 9,11.5 C9,9.54975962 10.5497949,8 12.4999765,8 C14.4501581,8 16,9.54975962 16,11.5 C16,13.4502404 14.4501581,15 12.4999765,15 Z"/></g></svg>