<?xml version="1.0" encoding="UTF-8"?>
<svg width="480px" height="480px" viewBox="0 0 480 480" version="1.1" xmlns="http://www.w3.org/2000/svg" xmlns:xlink="http://www.w3.org/1999/xlink">
    <!-- Generator: Sketch 63.1 (92452) - https://sketch.com -->
    <title>Artboard</title>
    <desc>Created with Sketch.</desc>
    <g id="Artboard" stroke="none" stroke-width="1" fill="none" fill-rule="evenodd">
        <rect fill="#006BAB" x="0" y="0" width="480" height="480"></rect>
        <g id="Group" transform="translate(74.000000, 74.000000)">
            <path d="M10.3753032,332 C7.67041987,332 5.01543446,330.936204 3.03961524,328.960385 C0.243252383,326.164022 -0.719361747,322.01002 0.557193492,318.27114 L23.5462762,251.016361 C8.12573843,225.230223 0,195.949843 0,166 C0,74.4691874 74.4691874,0 166,0 C257.530813,0 332,74.4691874 332,166 C332,257.530813 257.530813,332 166,332 C136.050157,332 106.769084,323.874262 80.9836387,308.453724 L13.7288596,331.442113 C12.6345703,331.817041 11.4993926,332 10.3753032,332 Z" id="Path" fill="#FFFFFF"></path>
            <g id="shopping_cart-24px-(1)" transform="translate(78.000000, 78.000000)">
                <path d="M57.8050633,133.982278 C49.6720253,133.982278 43.0916582,140.636582 43.0916582,148.76962 C43.0916582,156.902658 49.6720253,163.556962 57.8050633,163.556962 C65.9381013,163.556962 72.5924051,156.902658 72.5924051,148.76962 C72.5924051,140.636582 65.9381013,133.982278 57.8050633,133.982278 Z M13.443038,15.6835443 L13.443038,30.4708861 L28.2303797,30.4708861 L54.8475949,86.5888481 L44.8661392,104.703342 C43.6831519,106.77357 43.0177215,109.213481 43.0177215,111.801266 C43.0177215,119.934304 49.6720253,126.588608 57.8050633,126.588608 L146.529114,126.588608 L146.529114,111.801266 L60.9104051,111.801266 C59.8752911,111.801266 59.0619873,110.987962 59.0619873,109.952848 L59.2837975,109.065608 L65.9381013,97.0139241 L121.020949,97.0139241 C126.566203,97.0139241 131.446025,93.982519 133.959873,89.398443 L160.429215,41.413519 C161.020709,40.3784051 161.316456,39.121481 161.316456,37.864557 C161.316456,33.798038 157.989304,30.4708861 153.922785,30.4708861 L44.5703924,30.4708861 L37.6203418,15.6835443 L13.443038,15.6835443 Z M131.741772,133.982278 C123.608734,133.982278 117.028367,140.636582 117.028367,148.76962 C117.028367,156.902658 123.608734,163.556962 131.741772,163.556962 C139.87481,163.556962 146.529114,156.902658 146.529114,148.76962 C146.529114,140.636582 139.87481,133.982278 131.741772,133.982278 Z" id="Shape" fill="#006BAB" fill-rule="nonzero"></path>
                <polygon id="Path" points="0 0 177 0 177 177 0 177"></polygon>
            </g>
        </g>
    </g>
</svg>