<svg xmlns="http://www.w3.org/2000/svg" xmlns:xlink="http://www.w3.org/1999/xlink" width="114" height="114" version="1.1" viewBox="0 0 114 114"><title>Artboard</title><desc>Created with Sketch.</desc><g id="Artboard" fill="none" fill-rule="evenodd" stroke="none" stroke-width="1"><g id="WhatsleftLogo_96x96_SVG"><rect id="Rectangle" width="114" height="114" x="0" y="0" fill="#006BAB" fill-rule="nonzero"/><g id="Group" transform="translate(17.812500, 17.812500)"><path id="Path" fill="#FFF" fill-rule="nonzero" d="M2.44929032,78.375 C1.81075047,78.375 1.18398999,78.1238705 0.717559774,77.6574402 C0.0574244142,76.9973049 -0.169819208,76.0166726 0.131536265,75.1340381 L5.55855241,59.2572509 C1.9182372,53.1699358 0,46.2577378 0,39.1875 C0,17.5798873 17.5798873,0 39.1875,0 C60.7951127,0 78.375,17.5798873 78.375,39.1875 C78.375,60.7951127 60.7951127,78.375 39.1875,78.375 C32.1172622,78.375 25.2049005,76.4567629 19.1177491,72.8164476 L3.24096195,78.2433001 C2.98263388,78.331809 2.71465329,78.375 2.44929032,78.375 Z"/><g id="shopping_cart-24px-(1)" transform="translate(19.000000, 19.000000)"><path id="Shape" fill="#006BAB" fill-rule="nonzero" d="M13.5735759,31.4612342 C11.6638054,31.4612342 10.1186274,33.0237738 10.1186274,34.9335443 C10.1186274,36.8433149 11.6638054,38.4058545 13.5735759,38.4058545 C15.4833465,38.4058545 17.0458861,36.8433149 17.0458861,34.9335443 C17.0458861,33.0237738 15.4833465,31.4612342 13.5735759,31.4612342 Z M3.15664557,3.68275316 L3.15664557,7.1550633 L6.6289557,7.1550633 L12.8791139,20.3324802 L10.5353046,24.5860601 C10.2575198,25.0721835 10.1012658,25.6451147 10.1012658,26.2527689 C10.1012658,28.1625396 11.6638054,29.7250792 13.5735759,29.7250792 L34.4074367,29.7250792 L34.4074367,26.2527689 L14.3027611,26.2527689 C14.0596993,26.2527689 13.8687224,26.061792 13.8687224,25.8187302 L13.9208069,25.6103917 L15.4833465,22.7804589 L28.4177017,22.7804589 C29.719818,22.7804589 30.8656804,22.0686353 31.4559731,20.9922191 L37.6714082,9.72457278 C37.8103007,9.48151108 37.8797469,9.18636472 37.8797469,8.89121835 C37.8797469,7.93633307 37.0984771,7.1550633 36.1435918,7.1550633 L10.4658584,7.1550633 L8.83387262,3.68275316 L3.15664557,3.68275316 Z M30.9351266,31.4612342 C29.0253561,31.4612342 27.480178,33.0237738 27.480178,34.9335443 C27.480178,36.8433149 29.0253561,38.4058545 30.9351266,38.4058545 C32.8448972,38.4058545 34.4074367,36.8433149 34.4074367,34.9335443 C34.4074367,33.0237738 32.8448972,31.4612342 30.9351266,31.4612342 Z"/><polygon id="Path" points="0 0 41.563 0 41.563 41.563 0 41.563"/></g></g></g></g></svg>